<?xml version="1.0" encoding="utf-8"?>
<!-- Generator: Adobe Illustrator 26.1.0, SVG Export Plug-In . SVG Version: 6.00 Build 0)  -->
<svg version="1.1" id="Layer_1" xmlns="http://www.w3.org/2000/svg" xmlns:xlink="http://www.w3.org/1999/xlink" x="0px" y="0px"
	 viewBox="0 0 1000 1000" style="enable-background:new 0 0 1000 1000;" xml:space="preserve">
<style type="text/css">
	.st0{fill:#0A0E96;}
</style>
<g>
	<path class="st0" d="M649.6,584.8c94.8-52.7,159-153.8,159-270C808.6,144.4,670.5,6.2,500,6.2S191.4,144.4,191.4,314.8
		c0,116.2,64.2,217.3,159,270C169.7,642.2,34.1,800.7,10,993.8h62.3c30-209.4,210-370.4,427.7-370.4s397.8,161,427.7,370.4H990
		C965.9,800.7,830.3,642.2,649.6,584.8z M253.1,314.8c0-136.4,110.5-246.9,246.9-246.9s246.9,110.5,246.9,246.9
		S636.4,561.7,500,561.7S253.1,451.2,253.1,314.8z"/>
</g>
</svg>
