<?xml version="1.0" encoding="UTF-8"?><svg id="a" xmlns="http://www.w3.org/2000/svg" viewBox="0 0 148 20"><defs><style>.b{fill:#fff;}</style></defs><g><path class="b" d="M3.57,15.8h5.82l-.26,2.51H.86v-2.35L6.68,5.13H1.48V2.69h7.83v2.37L3.57,15.8Z"/><path class="b" d="M14.36,4.97v4.28h4.18v2.25h-4.18v4.54h5.08v2.27h-7.42V2.69h7.35l-.24,2.28h-4.78Z"/><path class="b" d="M30.2,7.67c0,1.21-.19,2.2-.58,2.97s-.93,1.34-1.63,1.7-1.51,.55-2.42,.55h-1.36v5.41h-2.34V2.69h3.47c1.53,0,2.72,.41,3.58,1.23,.86,.82,1.28,2.07,1.28,3.75Zm-2.42,.02c0-.65-.09-1.17-.28-1.57-.19-.4-.45-.7-.81-.89-.35-.19-.78-.28-1.27-.28h-1.22v5.65h1.29c.47,0,.87-.1,1.21-.29,.34-.19,.6-.5,.79-.93,.19-.43,.29-.99,.29-1.69Z"/><path class="b" d="M37.54,18.3v-6.86h-3.41v6.86h-2.34V2.69h2.34v6.21h3.41V2.69h2.34v15.61h-2.34Z"/><path class="b" d="M47.24,12.39v5.91h-2.34v-5.89l-3.9-9.72h2.56l2.55,7.11,2.58-7.11h2.45l-3.9,9.69Z"/><path class="b" d="M60.63,7.31c0,.75-.11,1.41-.34,1.97-.23,.56-.53,1.04-.91,1.42-.38,.38-.81,.68-1.29,.89l3.23,6.7h-2.68l-2.79-6.22h-1.08v6.22h-2.33V2.69h3.47c1.55,0,2.73,.38,3.52,1.14s1.19,1.92,1.19,3.48Zm-2.42,0c0-.84-.19-1.45-.55-1.82-.37-.37-.93-.56-1.67-.56h-1.2v4.96h1.28c.69,0,1.22-.2,1.59-.61s.56-1.06,.56-1.97Z"/></g><g><path class="b" d="M69.5,2.81c.74,0,1.36,.13,1.87,.41s.98,.66,1.42,1.16l-1.07,1.79c-.3-.36-.63-.63-.99-.82s-.75-.28-1.15-.28c-.49,0-.94,.18-1.35,.55-.41,.37-.74,.96-.99,1.77-.25,.81-.37,1.88-.37,3.21s.12,2.36,.36,3.17c.24,.81,.56,1.4,.97,1.77,.41,.37,.88,.56,1.4,.56,.55,0,1.01-.14,1.37-.41s.69-.57,.98-.9l.99,1.76c-.37,.52-.84,.96-1.4,1.33s-1.24,.55-2.04,.55c-.93,0-1.75-.3-2.48-.9-.73-.6-1.3-1.48-1.71-2.64-.41-1.16-.62-2.59-.62-4.3s.21-3.09,.64-4.25c.43-1.16,1-2.04,1.73-2.64,.73-.6,1.54-.9,2.43-.9Z"/><path class="b" d="M81.94,10.62c0,1.56-.16,2.92-.46,4.1s-.77,2.09-1.38,2.74c-.62,.65-1.37,.98-2.28,.98s-1.66-.32-2.27-.96c-.62-.64-1.08-1.54-1.39-2.71-.31-1.17-.46-2.55-.46-4.14s.15-2.92,.46-4.1,.77-2.09,1.39-2.74c.62-.65,1.37-.98,2.27-.98s1.66,.32,2.28,.95c.61,.64,1.07,1.54,1.38,2.71,.31,1.17,.46,2.55,.46,4.15Zm-2.16,0c0-1.89-.15-3.29-.46-4.21s-.81-1.37-1.51-1.37-1.2,.46-1.51,1.38c-.3,.92-.46,2.32-.46,4.21s.15,3.3,.47,4.21c.31,.91,.81,1.36,1.5,1.36s1.21-.46,1.51-1.38,.45-2.32,.45-4.2Z"/><path class="b" d="M90.68,3.14l.6,14.97h-1.87l-.2-6.9c-.02-.58-.02-1.11-.03-1.61,0-.49,0-.96,0-1.41,0-.44,.01-.87,.03-1.28s.03-.82,.05-1.21l-1.4,9.81h-1.7l-1.5-9.81c.02,.38,.04,.78,.05,1.2,.01,.42,.03,.86,.03,1.31,0,.46,.01,.94,.02,1.44,0,.5,0,1.03-.02,1.58l-.15,6.88h-1.84l.6-14.97h2.33l1.36,9.88,1.3-9.88h2.33Z"/><path class="b" d="M100.35,7.91c0,1.16-.18,2.11-.53,2.85-.35,.74-.84,1.29-1.47,1.63-.63,.35-1.35,.53-2.18,.53h-1.22v5.19h-2.1V3.14h3.12c1.38,0,2.45,.39,3.22,1.18,.77,.79,1.15,1.98,1.15,3.59Zm-2.18,.02c0-.62-.08-1.12-.25-1.51-.17-.39-.41-.67-.72-.85-.32-.18-.7-.27-1.14-.27h-1.1v5.42h1.16c.42,0,.78-.09,1.08-.28,.3-.18,.54-.48,.71-.89,.17-.41,.26-.95,.26-1.62Z"/><path class="b" d="M109.21,3.14V13.15c0,1.02-.15,1.92-.44,2.72-.29,.8-.72,1.42-1.28,1.88-.56,.46-1.25,.68-2.08,.68s-1.52-.22-2.09-.67c-.56-.44-.99-1.06-1.27-1.86s-.43-1.71-.43-2.76V3.14h2.1V12.32c0,1.28,.12,2.24,.37,2.87,.25,.64,.69,.96,1.32,.96s1.08-.32,1.33-.96,.37-1.6,.37-2.87V3.14h2.11Z"/><path class="b" d="M115.64,5.47v12.64h-2.09V5.47h-3.1V3.14h8.38l-.21,2.33h-2.97Z"/><path class="b" d="M122.92,5.32v4.1h3.76v2.15h-3.76v4.35h4.56v2.18h-6.66V3.14h6.61l-.21,2.19h-4.29Z"/><path class="b" d="M136.89,7.57c0,.72-.1,1.35-.3,1.89-.2,.54-.47,1-.82,1.36-.34,.37-.73,.65-1.16,.86l2.91,6.43h-2.41l-2.51-5.96h-.97v5.96h-2.09V3.14h3.12c1.4,0,2.45,.36,3.16,1.09,.71,.73,1.07,1.84,1.07,3.33Zm-2.18,0c0-.81-.17-1.39-.5-1.75-.33-.36-.83-.54-1.5-.54h-1.08v4.76h1.15c.62,0,1.1-.2,1.43-.58,.33-.39,.5-1.02,.5-1.89Z"/><path class="b" d="M146.16,13.81c0,.91-.17,1.71-.49,2.4-.33,.69-.8,1.24-1.42,1.63-.62,.39-1.37,.59-2.25,.59s-1.71-.19-2.37-.58c-.66-.39-1.21-.88-1.66-1.49l1.1-1.74c.38,.48,.81,.86,1.29,1.14,.48,.27,1.01,.41,1.6,.41,.38,0,.72-.08,1.02-.25,.3-.17,.54-.41,.72-.73,.18-.32,.26-.72,.26-1.19,0-.41-.06-.76-.18-1.04-.12-.28-.33-.53-.63-.76-.3-.22-.71-.45-1.25-.67-.78-.34-1.43-.71-1.93-1.12-.51-.41-.88-.89-1.13-1.45s-.37-1.22-.37-1.99c0-.86,.17-1.6,.51-2.23,.34-.62,.79-1.1,1.37-1.44s1.22-.5,1.93-.5c.79,0,1.48,.16,2.08,.48s1.12,.78,1.58,1.37l-1.05,1.68c-.36-.44-.76-.77-1.18-.97-.42-.21-.85-.31-1.28-.31-.34,0-.65,.07-.92,.2-.27,.13-.48,.32-.63,.57-.15,.25-.23,.57-.23,.96,0,.35,.07,.66,.21,.9s.38,.48,.72,.69,.81,.45,1.41,.72c.63,.27,1.18,.59,1.65,.96,.47,.38,.84,.86,1.11,1.46s.4,1.36,.4,2.29Z"/></g></svg>