<?xml version="1.0" encoding="utf-8"?>
<!-- Generator: Adobe Illustrator 26.1.0, SVG Export Plug-In . SVG Version: 6.00 Build 0)  -->
<svg version="1.1" id="Layer_1" xmlns="http://www.w3.org/2000/svg" xmlns:xlink="http://www.w3.org/1999/xlink" x="0px" y="0px"
	 viewBox="0 0 160 66" style="enable-background:new 0 0 160 66;" xml:space="preserve">
<style type="text/css">
	.st0{fill:none;}
	.st1{fill:#FFFFFF;}
</style>
<rect x="43.3" y="8.6" class="st0" width="2.4" height="0"/>
<rect x="37.8" y="9.3" class="st0" width="6.3" height="0"/>
<g>
	<g>
		<path class="st1" d="M9.2,28.2h12.1L20.8,33H3.6v-4.5L15.7,7.6H4.9V2.9h16.3v4.6L9.2,28.2z"/>
		<path class="st1" d="M31.7,7.3v8.2h8.7v4.3h-8.7v8.7h10.6V33H26.8V2.9h15.3l-0.5,4.4H31.7z"/>
		<path class="st1" d="M64.7,12.5c0,2.3-0.4,4.2-1.2,5.7s-1.9,2.6-3.4,3.3c-1.5,0.7-3.1,1.1-5,1.1h-2.8V33h-4.9V2.9h7.2
			c3.2,0,5.7,0.8,7.5,2.4S64.7,9.3,64.7,12.5z M59.6,12.6c0-1.2-0.2-2.3-0.6-3s-0.9-1.3-1.7-1.7c-0.7-0.4-1.6-0.5-2.6-0.5h-2.5v10.9
			h2.7c1,0,1.8-0.2,2.5-0.6s1.3-1,1.7-1.8C59.4,15,59.6,13.9,59.6,12.6z"/>
		<path class="st1" d="M80,33V19.8h-7.1V33H68V2.9h4.9v12H80v-12h4.9V33H80z"/>
		<path class="st1" d="M100.2,21.6V33h-4.9V21.6L87.2,2.9h5.3l5.3,13.7l5.4-13.7h5.1L100.2,21.6z"/>
		<path class="st1" d="M128,11.8c0,1.5-0.2,2.7-0.7,3.8s-1.1,2-1.9,2.7c-0.8,0.7-1.7,1.3-2.7,1.7l6.7,12.9h-5.6l-5.8-12h-2.2v12H111
			V2.9h7.2c3.2,0,5.7,0.7,7.3,2.2C127.2,6.6,128,8.8,128,11.8z M123,11.8c0-1.6-0.4-2.8-1.2-3.5c-0.8-0.7-1.9-1.1-3.5-1.1h-2.5v9.6
			h2.7c1.4,0,2.5-0.4,3.3-1.2C122.6,14.8,123,13.6,123,11.8z"/>
	</g>
</g>
<g>
	<g>
		<path class="st1" d="M10.6,34.2c1.4,0,2.6,0.3,3.6,0.8s1.9,1.3,2.7,2.3l-2.1,3.5c-0.6-0.7-1.2-1.2-1.9-1.6
			c-0.7-0.4-1.4-0.5-2.2-0.5c-0.9,0-1.8,0.4-2.6,1.1s-1.4,1.9-1.9,3.5c-0.5,1.6-0.7,3.7-0.7,6.3c0,2.6,0.2,4.6,0.7,6.2
			c0.5,1.6,1.1,2.7,1.9,3.5c0.8,0.7,1.7,1.1,2.7,1.1c1.1,0,1.9-0.3,2.7-0.8c0.7-0.5,1.3-1.1,1.9-1.8l1.9,3.4c-0.7,1-1.6,1.9-2.7,2.6
			s-2.4,1.1-3.9,1.1c-1.8,0-3.4-0.6-4.8-1.8c-1.4-1.2-2.5-2.9-3.3-5.2c-0.8-2.3-1.2-5.1-1.2-8.4c0-3.3,0.4-6,1.2-8.3
			c0.8-2.3,1.9-4,3.3-5.2C7.3,34.8,8.9,34.2,10.6,34.2z"/>
		<path class="st1" d="M34.6,49.5c0,3-0.3,5.7-0.9,8c-0.6,2.3-1.5,4.1-2.7,5.4s-2.7,1.9-4.4,1.9c-1.7,0-3.2-0.6-4.4-1.9
			c-1.2-1.2-2.1-3-2.7-5.3c-0.6-2.3-0.9-5-0.9-8.1c0-3,0.3-5.7,0.9-8c0.6-2.3,1.5-4.1,2.7-5.4c1.2-1.3,2.7-1.9,4.4-1.9
			c1.7,0,3.2,0.6,4.4,1.9c1.2,1.2,2.1,3,2.7,5.3C34.3,43.7,34.6,46.4,34.6,49.5z M30.5,49.5c0-3.7-0.3-6.4-0.9-8.2
			c-0.6-1.8-1.6-2.7-2.9-2.7c-1.4,0-2.3,0.9-2.9,2.7s-0.9,4.5-0.9,8.2c0,3.7,0.3,6.5,0.9,8.2c0.6,1.8,1.6,2.7,2.9,2.7
			c1.4,0,2.3-0.9,2.9-2.7S30.5,53.2,30.5,49.5z"/>
		<path class="st1" d="M51.5,34.8l1.2,29.3h-3.6l-0.4-13.5c0-1.1,0-2.2-0.1-3.1c0-1,0-1.9,0-2.8s0-1.7,0.1-2.5
			c0-0.8,0.1-1.6,0.1-2.4L46.1,59h-3.3l-2.9-19.2c0,0.7,0.1,1.5,0.1,2.3c0,0.8,0.1,1.7,0.1,2.6c0,0.9,0,1.8,0,2.8c0,1,0,2,0,3.1
			l-0.3,13.4h-3.6l1.2-29.3h4.5l2.6,19.3L47,34.8H51.5z"/>
		<path class="st1" d="M70.2,44.2c0,2.3-0.3,4.1-1,5.6c-0.7,1.4-1.6,2.5-2.8,3.2s-2.6,1-4.2,1h-2.4v10.1h-4.1V34.8h6
			c2.7,0,4.7,0.8,6.2,2.3C69.4,38.7,70.2,41,70.2,44.2z M66,44.2c0-1.2-0.2-2.2-0.5-3s-0.8-1.3-1.4-1.7c-0.6-0.4-1.3-0.5-2.2-0.5
			h-2.1v10.6H62c0.8,0,1.5-0.2,2.1-0.5c0.6-0.4,1-0.9,1.4-1.7C65.8,46.6,66,45.5,66,44.2z"/>
		<path class="st1" d="M87.3,34.8v19.6c0,2-0.3,3.8-0.9,5.3c-0.6,1.6-1.4,2.8-2.5,3.7s-2.4,1.3-4,1.3c-1.6,0-2.9-0.4-4-1.3
			c-1.1-0.9-1.9-2.1-2.5-3.6c-0.6-1.6-0.8-3.4-0.8-5.4V34.8h4.1v17.9c0,2.5,0.2,4.4,0.7,5.6c0.5,1.2,1.3,1.9,2.5,1.9
			c1.2,0,2.1-0.6,2.6-1.9c0.5-1.2,0.7-3.1,0.7-5.6V34.8H87.3z"/>
		<path class="st1" d="M99.7,39.4v24.7h-4V39.4h-6v-4.5h16.2l-0.4,4.5H99.7z"/>
		<path class="st1" d="M113.8,39.1v8h7.3v4.2h-7.3v8.5h8.8v4.3h-12.9V34.8h12.8l-0.4,4.3H113.8z"/>
		<path class="st1" d="M140.8,43.5c0,1.4-0.2,2.6-0.6,3.7c-0.4,1.1-0.9,1.9-1.6,2.7c-0.7,0.7-1.4,1.3-2.2,1.7l5.6,12.6h-4.7
			l-4.8-11.7h-1.9v11.7h-4V34.8h6c2.7,0,4.7,0.7,6.1,2.1C140.1,38.4,140.8,40.6,140.8,43.5z M136.6,43.5c0-1.6-0.3-2.7-1-3.4
			s-1.6-1-2.9-1h-2.1v9.3h2.2c1.2,0,2.1-0.4,2.8-1.1C136.3,46.4,136.6,45.2,136.6,43.5z"/>
		<path class="st1" d="M158.7,55.7c0,1.8-0.3,3.3-1,4.7c-0.6,1.4-1.6,2.4-2.7,3.2c-1.2,0.8-2.6,1.2-4.3,1.2c-1.8,0-3.3-0.4-4.6-1.1
			c-1.3-0.8-2.3-1.7-3.2-2.9l2.1-3.4c0.7,0.9,1.6,1.7,2.5,2.2c0.9,0.5,1.9,0.8,3.1,0.8c0.7,0,1.4-0.2,2-0.5c0.6-0.3,1.1-0.8,1.4-1.4
			c0.3-0.6,0.5-1.4,0.5-2.3c0-0.8-0.1-1.5-0.4-2c-0.2-0.6-0.6-1-1.2-1.5c-0.6-0.4-1.4-0.9-2.4-1.3c-1.5-0.7-2.8-1.4-3.7-2.2
			s-1.7-1.7-2.2-2.8c-0.5-1.1-0.7-2.4-0.7-3.9c0-1.7,0.3-3.1,1-4.3c0.7-1.2,1.5-2.2,2.6-2.8c1.1-0.7,2.4-1,3.7-1
			c1.5,0,2.9,0.3,4,0.9s2.2,1.5,3.1,2.7l-2,3.3c-0.7-0.9-1.5-1.5-2.3-1.9s-1.6-0.6-2.5-0.6c-0.7,0-1.3,0.1-1.8,0.4s-0.9,0.6-1.2,1.1
			S148,41.2,148,42c0,0.7,0.1,1.3,0.4,1.8c0.3,0.5,0.7,0.9,1.4,1.4c0.7,0.4,1.6,0.9,2.7,1.4c1.2,0.5,2.3,1.1,3.2,1.9
			c0.9,0.7,1.6,1.7,2.1,2.8S158.7,53.9,158.7,55.7z"/>
	</g>
</g>
</svg>
